<svg width="28" height="28" viewBox="0 0 28 28" fill="none" xmlns="http://www.w3.org/2000/svg">
<path d="M25.6662 19.74V23.24C25.6675 23.5649 25.6009 23.8866 25.4708 24.1843C25.3406 24.482 25.1497 24.7492 24.9103 24.9689C24.6708 25.1885 24.3882 25.3558 24.0804 25.4599C23.7726 25.5639 23.4464 25.6026 23.1228 25.5734C19.5328 25.1833 16.0843 23.9565 13.0545 21.9917C10.2356 20.2005 7.84574 17.8106 6.05452 14.9917C4.08282 11.9481 2.8558 8.48286 2.47285 4.8767C2.44369 4.55408 2.48204 4.22892 2.58543 3.92193C2.68883 3.61494 2.85501 3.33284 3.07341 3.09359C3.2918 2.85434 3.55762 2.66319 3.85394 2.53231C4.15025 2.40142 4.47058 2.33367 4.79452 2.33337H8.29452C8.86071 2.32779 9.40961 2.52829 9.8389 2.89749C10.2682 3.26668 10.5486 3.77939 10.6278 4.34003C10.7756 5.46011 11.0495 6.55988 11.4445 7.61836C11.6015 8.03594 11.6355 8.48977 11.5424 8.92606C11.4494 9.36235 11.2332 9.76283 10.9195 10.08L9.43785 11.5617C11.0987 14.4825 13.517 16.9009 16.4378 18.5617L17.9195 17.08C18.2367 16.7664 18.6372 16.5502 19.0735 16.4571C19.5098 16.3641 19.9636 16.3981 20.3812 16.555C21.4397 16.95 22.5394 17.224 23.6595 17.3717C24.2262 17.4516 24.7438 17.7371 25.1138 18.1738C25.4838 18.6104 25.6804 19.1679 25.6662 19.74Z" stroke="#424242" stroke-width="2" stroke-linecap="round" stroke-linejoin="round"/>
</svg>
