<svg width="25" height="25" viewBox="0 0 25 25" fill="none" xmlns="http://www.w3.org/2000/svg">
<path fill-rule="evenodd" clip-rule="evenodd" d="M22.7918 9.82285C23.0624 10.6122 22.8649 11.4868 22.2814 12.0833L18.948 15.4999C18.9257 15.5386 18.9257 15.5863 18.948 15.6249L19.6668 20.3333C19.8042 21.1715 19.4509 22.0147 18.757 22.5046C18.0631 22.9946 17.1503 23.0453 16.4064 22.6354L12.521 20.4791C12.4818 20.4587 12.4351 20.4587 12.396 20.4791L8.51055 22.6354C7.7673 23.0545 6.84909 23.008 6.15204 22.5158C5.455 22.0236 5.10386 21.1739 5.25013 20.3333L6.02096 15.6041C6.04013 15.561 6.04013 15.5118 6.02096 15.4687L2.7293 12.0833C2.14861 11.4854 1.94795 10.6145 2.20846 9.82285C2.47052 9.03205 3.1553 8.45603 3.9793 8.33327L8.43763 7.61452C8.48244 7.60246 8.52019 7.57226 8.5418 7.53119L10.5001 3.36452C10.8567 2.58117 11.6395 2.07971 12.5001 2.08327C13.3711 2.08377 14.1597 2.59857 14.5105 3.39577L16.4689 7.56244C16.486 7.60292 16.5204 7.63354 16.5626 7.64577L21.0314 8.33327C21.8546 8.45272 22.5377 9.03079 22.7918 9.82285ZM16.8855 15.9374C16.7746 15.2391 16.9983 14.5292 17.4897 14.0207L20.823 10.5937C20.8533 10.546 20.8533 10.4851 20.823 10.4374C20.8047 10.3877 20.7609 10.3518 20.7085 10.3437L16.2501 9.65616C15.5167 9.54745 14.8868 9.07794 14.573 8.40616L12.6251 4.23949C12.6032 4.19109 12.5531 4.16184 12.5001 4.16657C12.468 4.16364 12.4361 4.1744 12.4123 4.19622C12.3885 4.21803 12.375 4.24887 12.3751 4.28116L10.4168 8.44782C10.1175 9.10942 9.50803 9.57824 8.7918 9.69782L4.32305 10.3853C4.2736 10.3948 4.23348 10.4309 4.21888 10.4791C4.19097 10.5274 4.19097 10.587 4.21888 10.6353L7.51055 14.0416C8.00631 14.5474 8.23079 15.2595 8.11471 15.9582L7.34388 20.6874C7.33665 20.7438 7.36058 20.7996 7.40638 20.8332H7.5418L11.396 18.6562C12.0637 18.2873 12.8741 18.2873 13.5418 18.6562L17.5105 20.8124C17.5495 20.8458 17.607 20.8458 17.646 20.8124C17.6918 20.7788 17.7157 20.7229 17.7085 20.6666L16.8855 15.9374Z" fill="#FFBA94"/>
</svg>
