<svg width="25" height="25" viewBox="0 0 25 25" fill="none" xmlns="http://www.w3.org/2000/svg">
<path d="M18.3993 1.96093C18.7039 1.65628 19.0656 1.41462 19.4636 1.24974C19.8617 1.08486 20.2883 1 20.7192 1C21.15 1 21.5766 1.08486 21.9747 1.24974C22.3727 1.41462 22.7344 1.65628 23.0391 1.96093C23.3437 2.26559 23.5854 2.62727 23.7503 3.02531C23.9151 3.42336 24 3.84999 24 4.28084C24 4.71168 23.9151 5.13831 23.7503 5.53636C23.5854 5.93441 23.3437 6.29608 23.0391 6.60074L7.37973 22.2601L1 24L2.73993 17.6203L18.3993 1.96093Z" stroke="#727272" stroke-width="2" stroke-linecap="round" stroke-linejoin="round"/>
</svg>
