<svg version="1.1" id="Layer_1" xmlns="http://www.w3.org/2000/svg" xmlns:xlink="http://www.w3.org/1999/xlink" x="0px" y="0px"
	 width="100%" viewBox="0 0 240 240" enable-background="new 0 0 240 240" xml:space="preserve">
<path fill="#FEFEFE" opacity="1.000000" stroke="none" 
	d="
M241.000000,82.000000 
	C241.000000,134.958344 241.000000,187.916672 241.000000,240.937500 
	C161.104584,240.937500 81.209114,240.937500 1.000000,240.937500 
	C1.000000,188.646194 1.000000,136.291748 1.371703,83.588593 
	C2.653099,86.604630 3.406866,90.020874 4.497972,93.325752 
	C11.214162,113.668526 23.310946,130.897400 37.754623,146.141479 
	C64.676735,174.555481 92.517570,202.099045 119.993561,229.987610 
	C120.303314,230.302017 120.847466,230.385483 122.287209,231.018951 
	C149.892014,202.499680 177.968185,174.034973 205.369095,144.934433 
	C217.351562,132.208710 227.486847,117.836159 234.328293,101.538933 
	C236.985931,95.208038 238.801071,88.523460 241.000000,82.000000 
z"/>
<path fill="#060606" opacity="1.000000" stroke="none" 
	d="
M241.000000,81.532059 
	C238.801071,88.523460 236.985931,95.208038 234.328293,101.538933 
	C227.486847,117.836159 217.351562,132.208710 205.369095,144.934433 
	C177.968185,174.034973 149.892014,202.499680 122.287209,231.018951 
	C120.847466,230.385483 120.303314,230.302017 119.993561,229.987610 
	C92.517570,202.099045 64.676735,174.555481 37.754623,146.141479 
	C23.310946,130.897400 11.214162,113.668526 4.497972,93.325752 
	C3.406866,90.020874 2.653099,86.604630 1.371703,83.119934 
	C1.000000,76.645599 1.000000,70.291206 1.352005,63.292221 
	C5.593236,39.305435 18.370871,22.582516 40.779560,15.213650 
	C74.025421,4.281087 100.969612,14.494744 121.276886,43.055695 
	C131.659744,26.388929 146.225357,16.249170 165.158081,12.425415 
	C194.264313,6.546962 223.272339,20.040976 235.010223,45.373161 
	C237.731583,51.246281 239.040924,57.773674 241.000000,64.000000 
	C241.000000,69.688042 241.000000,75.376083 241.000000,81.532059 
M100.455353,35.001263 
	C98.446152,33.523941 96.466614,32.004189 94.423157,30.575880 
	C74.272583,16.491329 44.313942,18.209949 26.519863,35.165447 
	C10.139507,50.773846 7.707468,70.131454 14.286454,90.841118 
	C20.466337,110.294464 32.763958,126.321686 46.417507,140.860245 
	C70.359886,166.354538 95.342644,190.871872 119.906029,215.782227 
	C120.219307,216.099945 120.749390,216.203888 121.413445,216.519333 
	C134.959152,203.208801 148.897873,190.288040 161.929871,176.509659 
	C178.166458,159.343185 194.030228,141.788132 209.331055,123.785583 
	C219.065689,112.332069 226.226059,99.116127 229.632446,84.205299 
	C234.255615,63.968292 226.915070,42.598389 211.737717,32.013069 
	C185.855453,13.961719 152.794296,18.806931 133.504730,43.863297 
	C128.631073,50.193974 124.933632,57.430141 120.569260,64.453690 
	C115.889809,53.576748 109.950577,43.485905 100.455353,35.001263 
z"/>
<path fill="#FDFDFD" opacity="1.000000" stroke="none" 
	d="
M241.000000,63.531342 
	C239.040924,57.773674 237.731583,51.246281 235.010223,45.373161 
	C223.272339,20.040976 194.264313,6.546962 165.158081,12.425415 
	C146.225357,16.249170 131.659744,26.388929 121.276886,43.055695 
	C100.969612,14.494744 74.025421,4.281087 40.779560,15.213650 
	C18.370871,22.582516 5.593236,39.305435 1.352005,62.823818 
	C1.000000,42.358124 1.000000,21.716249 1.000000,1.037188 
	C80.879227,1.037188 160.758484,1.037188 241.000000,1.037188 
	C241.000000,21.686152 241.000000,42.374416 241.000000,63.531342 
z"/>
<path fill="#FEFEFE" opacity="1.000000" stroke="none" 
	d="
M100.719437,35.239662 
	C109.950577,43.485905 115.889809,53.576748 120.569260,64.453690 
	C124.933632,57.430141 128.631073,50.193974 133.504730,43.863297 
	C152.794296,18.806931 185.855453,13.961719 211.737717,32.013069 
	C226.915070,42.598389 234.255615,63.968292 229.632446,84.205299 
	C226.226059,99.116127 219.065689,112.332069 209.331055,123.785583 
	C194.030228,141.788132 178.166458,159.343185 161.929871,176.509659 
	C148.897873,190.288040 134.959152,203.208801 121.413445,216.519333 
	C120.749390,216.203888 120.219307,216.099945 119.906029,215.782227 
	C95.342644,190.871872 70.359886,166.354538 46.417507,140.860245 
	C32.763958,126.321686 20.466337,110.294464 14.286454,90.841118 
	C7.707468,70.131454 10.139507,50.773846 26.519863,35.165447 
	C44.313942,18.209949 74.272583,16.491329 94.423157,30.575880 
	C96.466614,32.004189 98.446152,33.523941 100.719437,35.239662 
z"/>
</svg>