<svg width="22" height="23" viewBox="0 0 22 23" fill="none" xmlns="http://www.w3.org/2000/svg">
<g clip-path="url(#clip0_921_530)">
<path d="M19.1985 9.76522C19.1985 16.1191 11.0458 21.5653 11.0458 21.5653C11.0458 21.5653 2.89319 16.1191 2.89319 9.76522C2.89319 7.59859 3.75213 5.52071 5.28104 3.98867C6.80996 2.45664 8.88362 1.59595 11.0458 1.59595C13.208 1.59595 15.2817 2.45664 16.8106 3.98867C18.3395 5.52071 19.1985 7.59859 19.1985 9.76522Z" stroke="#424242" stroke-width="2" stroke-linecap="round" stroke-linejoin="round"/>
<path d="M11.0458 12.4882C12.5467 12.4882 13.7633 11.269 13.7633 9.76508C13.7633 8.26116 12.5467 7.04199 11.0458 7.04199C9.54493 7.04199 8.32825 8.26116 8.32825 9.76508C8.32825 11.269 9.54493 12.4882 11.0458 12.4882Z" stroke="#424242" stroke-width="2" stroke-linecap="round" stroke-linejoin="round"/>
</g>
<defs>
<clipPath id="clip0_921_530">
<rect width="21.7404" height="21.7847" fill="white" transform="translate(0.175659 0.688232)"/>
</clipPath>
</defs>
</svg>
